<svg xmlns="http://www.w3.org/2000/svg" viewBox="0 0 150 31.06"><defs><style>.a{fill:#010101;}.b{fill:#079247;}</style></defs><path class="a" d="M56,9.94a6.16,6.16,0,0,1,5,2.37,7.71,7.71,0,0,1,1.79,5.1,7.73,7.73,0,0,1-1.89,5.18,6.46,6.46,0,0,1-9.73,0,7.73,7.73,0,0,1-1.89-5.18A7.75,7.75,0,0,1,51,12.32,6.2,6.2,0,0,1,56,9.94Zm0,1.79a4.63,4.63,0,0,0-3.58,1.67,5.89,5.89,0,0,0-1.49,4,6.1,6.1,0,0,0,.69,2.86,5,5,0,0,0,1.83,2,4.8,4.8,0,0,0,5.09,0,5,5,0,0,0,1.84-2,6.22,6.22,0,0,0,.69-2.86,5.86,5.86,0,0,0-1.51-4A4.6,4.6,0,0,0,56,11.73Z"/><path class="a" d="M65.2,10.31h1.71v2.06a6.1,6.1,0,0,1,1.61-1.82,2.93,2.93,0,0,1,1.75-.61,2.88,2.88,0,0,1,1.48.49L70.88,12a2,2,0,0,0-.88-.25,2.31,2.31,0,0,0-1.61.75,5,5,0,0,0-1.18,2.32,24.88,24.88,0,0,0-.3,4.88v4.78H65.2Z"/><path class="a" d="M84.34,10.31H86V21.57a14.74,14.74,0,0,1-.47,4.35,5.49,5.49,0,0,1-2.28,3,7,7,0,0,1-3.89,1,8.3,8.3,0,0,1-3-.51,6.19,6.19,0,0,1-2.17-1.39,8.35,8.35,0,0,1-1.53-2.53h1.81a5,5,0,0,0,1.9,2.08,5.77,5.77,0,0,0,2.91.67,5.63,5.63,0,0,0,2.88-.69,4.09,4.09,0,0,0,1.67-1.74,8.43,8.43,0,0,0,.5-3.38v-.73a6.52,6.52,0,0,1-2.3,2,6.29,6.29,0,0,1-6.24-.27,6.63,6.63,0,0,1-2.44-2.6,7.93,7.93,0,0,1,0-7.26,6.86,6.86,0,0,1,2.47-2.68,6.27,6.27,0,0,1,3.33-1,5.74,5.74,0,0,1,2.71.66,7.73,7.73,0,0,1,2.43,2.16ZM79.43,11.7a4.93,4.93,0,0,0-2.64.75,5.12,5.12,0,0,0-1.9,2.06,6.06,6.06,0,0,0-.69,2.85,5.38,5.38,0,0,0,1.43,3.85,5.28,5.28,0,0,0,7.4,0,5.66,5.66,0,0,0,1.39-4,6.1,6.1,0,0,0-.64-2.85,4.92,4.92,0,0,0-1.82-2A4.78,4.78,0,0,0,79.43,11.7Z"/><path class="a" d="M102.49,10.31V24.44h-1.65V22A7.16,7.16,0,0,1,98.5,24.1a5.94,5.94,0,0,1-2.86.7,6.11,6.11,0,0,1-4.7-2.17A7.69,7.69,0,0,1,89,17.34a7.52,7.52,0,0,1,2-5.23,6.19,6.19,0,0,1,4.73-2.17,5.64,5.64,0,0,1,2.89.75,6.63,6.63,0,0,1,2.26,2.22v-2.6ZM95.83,11.7a4.75,4.75,0,0,0-2.57.74,5.33,5.33,0,0,0-1.88,2.1,6.21,6.21,0,0,0,0,5.71,5.54,5.54,0,0,0,1.88,2.12,4.63,4.63,0,0,0,2.55.76,4.81,4.81,0,0,0,2.59-.76,5,5,0,0,0,1.88-2,6.29,6.29,0,0,0,.67-2.9,5.87,5.87,0,0,0-1.49-4.09A4.69,4.69,0,0,0,95.83,11.7Z"/><path class="a" d="M106.24,10.31h1.67v2.53a7.25,7.25,0,0,1,2.21-2.18,5.19,5.19,0,0,1,2.65-.72,4.36,4.36,0,0,1,2.57.81A4.62,4.62,0,0,1,117,12.92a12.33,12.33,0,0,1,.54,4.25v7.27h-1.67V17.7a17.31,17.31,0,0,0-.19-3.26,3.61,3.61,0,0,0-1.11-2.11,3.16,3.16,0,0,0-2.14-.71,3.92,3.92,0,0,0-2.71,1.09,5.23,5.23,0,0,0-1.58,2.7,20.57,20.57,0,0,0-.23,3.84v5.19h-1.67Z"/><rect class="a" x="120.86" y="10.31" width="1.67" height="14.13"/><path class="a" d="M138.56,13.24l-1.32.9a5.36,5.36,0,0,0-4.67-2.48,5.19,5.19,0,0,0-3.94,1.66,5.72,5.72,0,0,0-1.56,4,6.27,6.27,0,0,0,.72,2.91,5.32,5.32,0,0,0,4.79,2.87,5.52,5.52,0,0,0,4.66-2.49l1.32.95A6.37,6.37,0,0,1,136.07,24a7.4,7.4,0,0,1-3.56.84,6.74,6.74,0,0,1-5.1-2.13,7.23,7.23,0,0,1-2-5.18,7.91,7.91,0,0,1,.94-3.81,7,7,0,0,1,2.6-2.75,7.2,7.2,0,0,1,3.71-1,7.48,7.48,0,0,1,2.48.43,6.93,6.93,0,0,1,2,1.12A6,6,0,0,1,138.56,13.24Z"/><path class="a" d="M148.28,11.85l-1.07,1.21a3.73,3.73,0,0,0-2.61-1.41,2,2,0,0,0-2,1.94,2.15,2.15,0,0,0,.48,1.32,6.9,6.9,0,0,0,2,1.49,7.57,7.57,0,0,1,2.54,2,3.93,3.93,0,0,1,.65,2.21,4.2,4.2,0,0,1-1.12,3,3.68,3.68,0,0,1-2.8,1.2,4.46,4.46,0,0,1-2.14-.53,4.88,4.88,0,0,1-1.69-1.47l1.05-1.3a3.56,3.56,0,0,0,2.71,1.58,2.33,2.33,0,0,0,1.7-.71,2.21,2.21,0,0,0,.71-1.65,2.24,2.24,0,0,0-.47-1.39,7.58,7.58,0,0,0-2.1-1.5,6.86,6.86,0,0,1-2.39-1.95,3.89,3.89,0,0,1-.62-2.19,3.74,3.74,0,0,1,1-2.68,3.36,3.36,0,0,1,2.55-1.07A5.13,5.13,0,0,1,148.28,11.85Z"/><path class="a" d="M13.55,21.72V23.8H1.71V21.9l8.2-9.59H2.29V10.4h11v1.91L5.21,21.72Z"/><path class="a" d="M26.19,23.8H15.79V10.4h10.3v2H18.68V16h6V18h-6v3.75h7.51Z"/><path class="a" d="M40.78,23.8H38L31.9,15.24l-.46-.64L31,14V23.8H28.68V10.4h3.19l5.62,7.89c0,.07.38.55,1,1.45V10.4h2.27Z"/><path class="b" d="M126.3,1.09a1.93,1.93,0,0,1-1.44,1.25,3.92,3.92,0,0,0-3,4.5s-.19-1-2.78-3a6,6,0,0,0-6-.86c8.62,1.82,9,6,9,6l.87-.19a3.14,3.14,0,0,1,1.53-1.53C130.42,4.54,126.3,1.09,126.3,1.09ZM124,6.46a9.72,9.72,0,0,1-1.36.57,4.52,4.52,0,0,1,3.28-3.16C125.74,4.25,125.17,5.89,124,6.46Z"/></svg>