<?xml version="1.0" encoding="utf-8"?>
<!-- Generator: Adobe Illustrator 25.4.1, SVG Export Plug-In . SVG Version: 6.00 Build 0)  -->
<svg version="1.1" id="Layer_1" xmlns="http://www.w3.org/2000/svg" xmlns:xlink="http://www.w3.org/1999/xlink" x="0px" y="0px"
	 viewBox="0 0 265.5 52" enable-background="new 0 0 265.5 52" xml:space="preserve">
<g>
	<path fill="#010101" d="M98.37,16.04c3.48-0.08,6.78,1.49,8.92,4.23c2.13,2.55,3.26,5.78,3.19,9.1c0.05,3.39-1.15,6.68-3.37,9.24
		c-4.19,4.79-11.47,5.29-16.26,1.1c-0.39-0.34-0.76-0.71-1.1-1.1c-2.22-2.56-3.42-5.85-3.37-9.24c-0.09-3.3,1-6.52,3.07-9.08
		C91.59,17.55,94.89,15.98,98.37,16.04z M98.37,19.24c-2.47-0.01-4.81,1.08-6.39,2.98c-1.75,1.96-2.7,4.51-2.66,7.14
		c-0.01,1.78,0.41,3.53,1.23,5.1c0.74,1.47,1.87,2.7,3.27,3.57c2.78,1.74,6.3,1.74,9.08,0c1.4-0.86,2.54-2.1,3.28-3.57
		c0.81-1.58,1.23-3.33,1.23-5.1c0.03-2.63-0.93-5.18-2.69-7.14C103.16,20.32,100.83,19.23,98.37,19.24z"/>
	<path fill="#010101" d="M114.78,16.7h3.05v3.68c0.73-1.26,1.71-2.37,2.87-3.25c0.9-0.69,1.99-1.07,3.12-1.09
		c0.94,0.04,1.86,0.35,2.64,0.87l-1.55,2.8c-0.48-0.27-1.02-0.42-1.57-0.45c-1.1,0.05-2.13,0.53-2.87,1.34
		c-1.05,1.17-1.78,2.6-2.11,4.14c-0.46,2.88-0.64,5.79-0.54,8.71v8.53h-3.05V16.7z"/>
	<path fill="#010101" d="M148.94,16.7h2.96v20.09c0.11,2.61-0.17,5.23-0.84,7.76c-0.68,2.21-2.12,4.1-4.07,5.35
		c-2.09,1.26-4.5,1.88-6.94,1.78c-1.83,0.03-3.64-0.28-5.35-0.91c-1.45-0.55-2.77-1.39-3.87-2.48c-1.17-1.33-2.1-2.86-2.73-4.51
		h3.23c0.75,1.54,1.93,2.82,3.39,3.71c1.6,0.85,3.39,1.26,5.19,1.2c1.79,0.06,3.57-0.37,5.14-1.23c1.28-0.71,2.32-1.79,2.98-3.1
		c0.71-1.93,1.01-3.98,0.89-6.03v-1.3c-1.07,1.5-2.47,2.72-4.1,3.57c-3.53,1.82-7.77,1.64-11.13-0.48
		c-1.85-1.12-3.35-2.72-4.35-4.64c-2.09-4.06-2.09-8.89,0-12.95c1.01-1.96,2.53-3.61,4.41-4.78c1.77-1.14,3.83-1.76,5.94-1.78
		c1.68-0.01,3.34,0.39,4.84,1.18c1.7,0.96,3.18,2.28,4.34,3.85L148.94,16.7z M140.17,19.18c-1.67-0.01-3.3,0.46-4.71,1.34
		c-1.45,0.89-2.62,2.16-3.39,3.68c-0.82,1.57-1.24,3.31-1.23,5.09c-0.09,2.54,0.83,5.01,2.55,6.87c3.67,3.6,9.54,3.6,13.2,0
		c1.72-1.97,2.61-4.53,2.48-7.14c0.04-1.76-0.36-3.51-1.14-5.09c-0.73-1.47-1.85-2.71-3.25-3.57
		C143.32,19.56,141.76,19.15,140.17,19.18z"/>
	<path fill="#010101" d="M181.32,16.7v25.21h-2.94v-4.35c-1.1,1.54-2.52,2.82-4.18,3.75c-1.57,0.84-3.32,1.27-5.1,1.25
		c-3.23,0.02-6.3-1.4-8.39-3.87c-2.31-2.6-3.54-5.97-3.46-9.44c-0.06-3.45,1.22-6.8,3.57-9.33c2.11-2.47,5.19-3.88,8.44-3.87
		c1.81-0.03,3.59,0.44,5.16,1.34c1.64,0.98,3.03,2.33,4.03,3.96V16.7L181.32,16.7z M169.44,19.18c-1.62-0.01-3.22,0.45-4.59,1.32
		c-1.43,0.93-2.59,2.22-3.35,3.75c-1.65,3.19-1.65,6.99,0,10.19c0.77,1.53,1.93,2.83,3.35,3.78c1.35,0.89,2.93,1.36,4.55,1.36
		c1.64,0,3.24-0.47,4.62-1.36c1.43-0.85,2.59-2.09,3.35-3.57c0.81-1.6,1.22-3.38,1.2-5.17c0.08-2.68-0.87-5.3-2.66-7.3
		C174.31,20.27,171.93,19.17,169.44,19.18z"/>
	<path fill="#010101" d="M188.01,16.7h2.98v4.51c1.02-1.57,2.36-2.89,3.94-3.89c1.43-0.84,3.07-1.29,4.73-1.28
		c1.64-0.01,3.25,0.49,4.59,1.45c1.36,0.96,2.39,2.31,2.96,3.87c0.76,2.45,1.09,5.02,0.96,7.58v12.97h-2.98V29.89
		c0.07-1.95-0.04-3.89-0.34-5.82c-0.21-1.44-0.91-2.77-1.98-3.76c-1.07-0.88-2.43-1.33-3.82-1.27c-1.8,0-3.53,0.7-4.84,1.94
		c-1.41,1.28-2.39,2.96-2.82,4.82c-0.35,2.27-0.49,4.56-0.41,6.85v9.26h-2.98V16.7z"/>
	<rect x="214.1" y="16.7" fill="#010101" width="2.98" height="25.21"/>
	<path fill="#010101" d="M245.68,21.93l-2.36,1.61c-1.81-2.84-4.97-4.52-8.33-4.43c-2.66-0.07-5.22,1.01-7.03,2.96
		c-1.82,1.93-2.82,4.49-2.78,7.14c0,1.81,0.44,3.59,1.28,5.19c1.65,3.19,4.96,5.17,8.55,5.12c3.35,0.03,6.48-1.65,8.31-4.44
		l2.36,1.7c-1.05,1.84-2.59,3.34-4.44,4.35c-1.96,1.02-4.14,1.54-6.35,1.5c-3.44,0.09-6.75-1.29-9.1-3.8
		c-2.37-2.48-3.66-5.81-3.57-9.24c-0.02-2.37,0.56-4.71,1.68-6.8c1.07-2.03,2.67-3.73,4.64-4.91c2-1.18,4.29-1.8,6.62-1.78
		c1.51,0,3,0.26,4.43,0.77c1.29,0.46,2.5,1.14,3.57,2C244.17,19.72,245.03,20.76,245.68,21.93z"/>
	<path fill="#010101" d="M263.02,19.45l-1.91,2.16c-1.14-1.45-2.82-2.36-4.66-2.52c-1.93,0-3.51,1.53-3.57,3.46
		c0.01,0.86,0.32,1.69,0.86,2.36c1.02,1.1,2.23,2,3.57,2.66c1.75,0.85,3.3,2.07,4.53,3.57c0.77,1.17,1.18,2.54,1.16,3.94
		c0.07,1.98-0.65,3.9-2,5.35c-1.28,1.4-3.1,2.18-5,2.14c-1.33,0.01-2.64-0.32-3.82-0.95c-1.19-0.63-2.23-1.53-3.02-2.62l1.87-2.32
		c1.09,1.64,2.87,2.68,4.84,2.82c1.14,0.01,2.24-0.45,3.03-1.27c0.82-0.76,1.28-1.83,1.27-2.94c0.01-0.9-0.29-1.77-0.84-2.48
		c-1.09-1.1-2.35-2.01-3.75-2.68c-1.67-0.82-3.13-2.01-4.26-3.48c-0.75-1.16-1.14-2.52-1.11-3.91c-0.06-1.77,0.58-3.49,1.78-4.78
		c1.17-1.26,2.83-1.96,4.55-1.91C259.09,16.25,261.43,17.48,263.02,19.45z"/>
	<path fill="#010101" d="M22.63,37.06v3.71H1.5v-3.39l14.63-17.11H2.53v-3.41h19.63v3.41L7.74,37.06H22.63z"/>
	<path fill="#010101" d="M45.18,40.77H26.62V16.86H45v3.57H31.78v6.42h10.71v3.57H31.78v6.69h13.4V40.77z"/>
	<path fill="#010101" d="M71.21,40.77h-4.96L55.37,25.5l-0.82-1.14l-0.79-1.07v17.49h-4.14V16.86h5.69l10.03,14.08
		c0,0.12,0.68,0.98,1.78,2.59V16.86h4.05L71.21,40.77z"/>
	<path fill="#079247" d="M223.8,0.25c-0.4,1.14-1.38,1.99-2.57,2.23c-3.64,0.82-6,4.35-5.35,8.03c0,0-0.34-1.78-4.96-5.35
		c-3.03-2.41-7.12-3-10.71-1.53c15.38,3.25,16.06,10.71,16.06,10.71l1.55-0.34c0.56-1.2,1.53-2.17,2.73-2.73
		C231.16,6.41,223.8,0.25,223.8,0.25z M219.7,9.83c-0.78,0.4-1.59,0.74-2.43,1.02c0.79-2.8,3.03-4.95,5.85-5.64
		C222.8,5.89,221.79,8.82,219.7,9.83z"/>
</g>
</svg>
